<?xml version="1.0" encoding="utf-8"?>
<!-- Generator: Adobe Illustrator 23.1.0, SVG Export Plug-In . SVG Version: 6.00 Build 0)  -->
<svg version="1.1" id="Layer_1" xmlns="http://www.w3.org/2000/svg" xmlns:xlink="http://www.w3.org/1999/xlink" x="0px" y="0px"
	 width="52px" height="126px" viewBox="0 0 52 126" style="enable-background:new 0 0 52 126;" xml:space="preserve">
<style type="text/css">
	.st0{display:none;}
	.st1{display:inline;fill:#315C66;}
	.st2{display:inline;fill:none;stroke:#FFFFFF;stroke-width:7.700000e-02;stroke-miterlimit:10;}
	.st3{display:inline;fill:none;stroke:#F9FCFE;stroke-width:7.700000e-02;stroke-miterlimit:10;}
	.st4{display:inline;fill:#FFFFFF;}
	.st5{fill:#315C66;}
	.st6{fill:none;stroke:#FFFFFF;stroke-width:7.700000e-02;stroke-miterlimit:10;}
	.st7{fill:none;stroke:#F9FCFE;stroke-width:7.700000e-02;stroke-miterlimit:10;}
	.st8{fill:#FFFFFF;}
</style>
<g class="st0">
	<polygon class="st1" points="165.1,465.6 189.9,451.4 215,465.9 191.5,480.9 	"/>
	<polygon class="st2" points="165.1,465.6 189.9,451.4 215,465.9 191.5,480.9 	"/>
	<polygon class="st1" points="191.5,387.6 214.6,374.2 188.3,359 165.1,372.4 	"/>
	<polygon class="st2" points="191.5,387.6 214.6,374.2 188.3,359 165.1,372.4 	"/>
	<polygon class="st1" points="189.9,359.9 166.8,373.3 166.8,420.9 189.9,407.6 	"/>
	<polygon class="st1" points="191.6,435.2 214.3,416.8 191.6,404.7 165.2,420 	"/>
	<polygon class="st2" points="191.6,435.2 214.3,416.8 191.6,404.7 165.2,420 	"/>
	<polygon class="st1" points="189.9,405.7 166.8,419.1 166.8,466.6 189.9,453.3 	"/>
	<polygon class="st3" points="189.9,405.7 166.8,419.1 166.8,466.6 189.9,453.3 	"/>
	<path class="st1" d="M165.1,467.6V420l26.4,15.2v47.6L165.1,467.6z M166.8,466.6l23.1,13.3v-43.8l-23.1-13.3V466.6z"/>
	<path class="st2" d="M165.1,467.6V420l26.4,15.2v47.6L165.1,467.6z M166.8,466.6l23.1,13.3v-43.8l-23.1-13.3V466.6z"/>
	<path class="st1" d="M165.1,420v-47.6l26.4,15.2v47.6L165.1,420z M166.8,419l23.1,13.3v-43.8l-23.1-13.3V419z"/>
	<path class="st2" d="M165.1,420v-47.6l26.4,15.2v47.6L165.1,420z M166.8,419l23.1,13.3v-43.8l-23.1-13.3V419z"/>
	<polygon class="st1" points="191.5,482.8 191.5,387.6 214.6,374.2 215,469.3 	"/>
	<polygon class="st2" points="191.5,482.8 191.5,387.6 214.6,374.2 215,469.3 	"/>
	<path class="st4" d="M194.7,372.7c-0.1-0.1-0.2-0.1-0.4-0.1c-0.1,0-0.3,0-0.4,0.1c-0.1,0.1-0.2,0.2-0.3,0.3
		c-0.1,0.1-0.1,0.3-0.1,0.4c0,0.2,0,0.3,0.1,0.4s0.2,0.2,0.3,0.3c0.1,0.1,0.2,0.1,0.4,0.1c0.1,0,0.3,0,0.4-0.1
		c0.1-0.1,0.2-0.2,0.3-0.3c0.1-0.1,0.1-0.3,0.1-0.4c0-0.2,0-0.3-0.1-0.4S194.8,372.8,194.7,372.7"/>
	<polygon class="st4" points="186.7,373.5 187.6,373.5 187.1,372.3 	"/>
	<path class="st4" d="M189.7,365.7c-4.1,0-7.5,3.3-7.5,7.5c0,4.1,3.3,7.5,7.5,7.5c4.1,0,7.5-3.3,7.5-7.5S193.9,365.7,189.7,365.7
		 M191.2,373.7c0.1,0.2,0.2,0.3,0.4,0.4s0.4,0.1,0.6,0.1c0.3,0,0.6-0.1,0.8-0.3l0.1,0.1c-0.1,0.1-0.2,0.2-0.4,0.3
		c-0.2,0.1-0.3,0.1-0.5,0.1s-0.5-0.1-0.7-0.2s-0.4-0.3-0.5-0.5s-0.2-0.4-0.2-0.7c0-0.2,0.1-0.5,0.2-0.7c0.1-0.2,0.3-0.4,0.5-0.5
		s0.4-0.2,0.7-0.2c0.2,0,0.4,0,0.5,0.1c0.2,0.1,0.3,0.1,0.4,0.3l-0.1,0.1c-0.2-0.2-0.5-0.3-0.8-0.3c-0.2,0-0.4,0-0.6,0.1
		c-0.2,0.1-0.3,0.2-0.4,0.4c-0.1,0.2-0.1,0.4-0.1,0.6C191,373.3,191.1,373.5,191.2,373.7 M188.4,375.6l-0.3-0.8h-1.8l-0.3,0.8h-1.7
		l2.1-4.9h1.6l2.1,4.9H188.4z M195.2,375.6h-4.4v-0.2h4.4V375.6z M195.1,373.9c-0.1,0.1-0.2,0.3-0.3,0.3c-0.1,0.1-0.3,0.1-0.5,0.1
		s-0.3,0-0.5-0.1c-0.1-0.1-0.3-0.2-0.3-0.3c-0.1-0.1-0.1-0.3-0.1-0.5s0-0.3,0.1-0.5c0.1-0.1,0.2-0.3,0.3-0.3
		c0.1-0.1,0.3-0.1,0.5-0.1s0.3,0,0.5,0.1c0.1,0.1,0.3,0.2,0.3,0.3s0.1,0.3,0.1,0.5C195.2,373.6,195.2,373.8,195.1,373.9
		 M190.8,370.7h4.4v0.2h-4.4V370.7z"/>
	<path class="st4" d="M211.3,452c-0.1,0.1-0.2,0.3-0.3,0.3c-0.1,0.1-0.3,0.1-0.5,0.1s-0.3,0-0.5-0.1c-0.1-0.1-0.3-0.2-0.3-0.3
		c-0.1-0.1-0.1-0.3-0.1-0.5c0-0.1,0-0.3,0.1-0.4c0-0.1,0.1-0.2,0.2-0.3l0.1,0.1c-0.1,0.2-0.2,0.3-0.2,0.6c0,0.2,0,0.3,0.1,0.4
		s0.2,0.2,0.3,0.3c0.1,0.1,0.3,0.1,0.4,0.1c0.2,0,0.3,0,0.4-0.1C211.1,452.1,211.2,452,211.3,452c0.1-0.2,0.1-0.4,0.1-0.5
		c0-0.2-0.1-0.4-0.2-0.6l0.1-0.1c0.1,0.1,0.2,0.2,0.2,0.3c0,0.1,0.1,0.2,0.1,0.4C211.4,451.7,211.4,451.9,211.3,452"/>
	<path class="st4" d="M211.4,450.3c-0.1,0.1-0.1,0.2-0.3,0.3c-0.1,0.1-0.2,0.1-0.4,0.1c-0.1,0-0.3,0-0.4-0.1
		c-0.1-0.1-0.2-0.1-0.3-0.3c-0.1-0.1-0.1-0.2-0.1-0.4c0-0.1,0-0.3,0.1-0.4s0.1-0.2,0.3-0.3c0.1-0.1,0.2-0.1,0.4-0.1
		c0.1,0,0.3,0,0.4,0.1c0.1,0.1,0.2,0.1,0.3,0.3c0.1,0.1,0.1,0.2,0.1,0.4C211.4,450.1,211.4,450.2,211.4,450.3 M211.2,449.7
		c-0.1-0.1-0.1-0.2-0.2-0.2c-0.1,0-0.2-0.1-0.3-0.1s-0.2,0-0.3,0.1c-0.1,0-0.2,0.1-0.2,0.2s-0.1,0.2-0.1,0.3c0,0.1,0,0.2,0.1,0.3
		c0.1,0.1,0.1,0.2,0.2,0.2c0.1,0,0.2,0.1,0.3,0.1s0.2,0,0.3-0.1c0.1,0,0.2-0.1,0.2-0.2s0.1-0.2,0.1-0.3
		C211.3,449.8,211.3,449.8,211.2,449.7"/>
	<path class="st4" d="M210.2,447.7c0.1-0.1,0.2-0.2,0.4-0.2h0.8v0.1h-0.8C210.4,447.6,210.3,447.6,210.2,447.7
		c-0.1,0.1-0.1,0.2-0.1,0.3c0,0.2,0,0.3,0.1,0.4s0.2,0.1,0.4,0.1h0.7v0.1H210v-0.1h0.3c-0.1,0-0.2-0.1-0.2-0.2
		c-0.1-0.1-0.1-0.2-0.1-0.3C210,448,210.1,447.8,210.2,447.7"/>
	<path class="st4" d="M211.4,446.8c-0.1,0.1-0.1,0.2-0.3,0.3c-0.1,0.1-0.2,0.1-0.4,0.1c-0.1,0-0.3,0-0.4-0.1
		c-0.1-0.1-0.2-0.1-0.3-0.3c-0.1-0.1-0.1-0.2-0.1-0.4c0-0.1,0-0.2,0.1-0.3c0-0.1,0.1-0.2,0.2-0.2l0.1,0.1c-0.1,0.1-0.1,0.1-0.2,0.2
		c0,0.1-0.1,0.2-0.1,0.2c0,0.1,0,0.2,0.1,0.3c0,0.1,0.1,0.2,0.2,0.2c0.1,0,0.2,0.1,0.3,0.1s0.2,0,0.3-0.1s0.2-0.1,0.2-0.2
		s0.1-0.2,0.1-0.3c0-0.1,0-0.2-0.1-0.2c0-0.1-0.1-0.1-0.2-0.2l0.1-0.1c0.1,0.1,0.1,0.1,0.2,0.2c0,0.1,0.1,0.2,0.1,0.3
		C211.4,446.6,211.4,446.7,211.4,446.8"/>
	<path class="st4" d="M210.8,444.4v1.2c0.1,0,0.2,0,0.3-0.1s0.2-0.1,0.2-0.2s0.1-0.2,0.1-0.3c0-0.1,0-0.2,0-0.3
		c0-0.1-0.1-0.1-0.1-0.2l0.1-0.1c0.1,0.1,0.1,0.1,0.2,0.2c0,0.1,0.1,0.2,0.1,0.3c0,0.1,0,0.3-0.1,0.4s-0.1,0.2-0.3,0.3
		c-0.1,0.1-0.2,0.1-0.4,0.1c-0.1,0-0.3,0-0.4-0.1s-0.2-0.1-0.3-0.2s-0.1-0.2-0.1-0.3s0-0.2,0.1-0.3c0.1-0.1,0.1-0.2,0.3-0.2
		C210.5,444.4,210.6,444.4,210.8,444.4L210.8,444.4z M210.2,445.3c0,0.1,0.1,0.1,0.2,0.2c0.1,0,0.2,0.1,0.3,0.1v-1.1
		c-0.1,0-0.2,0-0.3,0.1c-0.1,0-0.1,0.1-0.2,0.2c0,0.1-0.1,0.2-0.1,0.3C210.1,445.1,210.2,445.2,210.2,445.3"/>
	<path class="st4" d="M210.1,442.9c0.1-0.1,0.1-0.2,0.3-0.2c0.1-0.1,0.2-0.1,0.4-0.1s0.3,0,0.4,0.1c0.1,0.1,0.2,0.1,0.3,0.2
		s0.1,0.2,0.1,0.4c0,0.1,0,0.2-0.1,0.3c-0.1,0.1-0.1,0.2-0.2,0.2h0.8v0.1H210v-0.1h0.3c-0.1-0.1-0.2-0.1-0.3-0.2s-0.1-0.2-0.1-0.3
		C210,443.1,210.1,443,210.1,442.9 M211.2,443c-0.1-0.1-0.1-0.2-0.2-0.2c-0.1-0.1-0.2-0.1-0.3-0.1s-0.2,0-0.3,0.1
		c-0.1,0-0.2,0.1-0.2,0.2s-0.1,0.2-0.1,0.3c0,0.1,0,0.2,0.1,0.3c0.1,0.1,0.1,0.2,0.2,0.2c0.1,0,0.2,0.1,0.3,0.1s0.2,0,0.3-0.1
		c0.1,0,0.2-0.1,0.2-0.2s0.1-0.2,0.1-0.3S211.3,443.1,211.2,443"/>
	<path class="st4" d="M211.3,441.5l0.1,0.1c0,0,0,0.1,0,0.2s0,0.2-0.1,0.3c-0.1,0.1-0.2,0.1-0.3,0.1h-0.9v0.3H210v-0.3h-0.3V442h0.3
		v-0.4h0.1v0.4h0.9c0.1,0,0.2,0,0.2-0.1c0,0,0.1-0.1,0.1-0.2C211.3,441.6,211.3,441.6,211.3,441.5L211.3,441.5z"/>
	<path class="st4" d="M211.7,464.4v1.4l0.6,0.2v1.2l-3.6-1.6v-1.2l3.6-1.6v1.2L211.7,464.4z M210.8,464.7l-0.9,0.3l0.9,0.3V464.7z"
		/>
	<path class="st4" d="M211.4,461.2v0.3h0.9v1.2h-3.6V461c0-0.3,0.1-0.6,0.2-0.9c0.1-0.2,0.3-0.4,0.5-0.6c0.2-0.1,0.4-0.2,0.7-0.2
		s0.5,0.1,0.7,0.2s0.3,0.3,0.5,0.5l1.1-0.8v1.3L211.4,461.2z M209.8,460.7c-0.1,0.1-0.1,0.2-0.1,0.4v0.4h0.8V461
		c0-0.2,0-0.3-0.1-0.4s-0.2-0.1-0.3-0.1S209.8,460.6,209.8,460.7"/>
	<rect x="208.7" y="457.7" class="st4" width="3.6" height="1.2"/>
	<path class="st4" d="M211.7,454.7v1.4l0.6,0.2v1.2l-3.6-1.6v-1.2l3.6-1.6v1.2L211.7,454.7z M210.8,455l-0.9,0.3l0.9,0.3V455z"/>
	<rect x="208.7" y="449.5" class="st4" width="0.1" height="3.1"/>
	<rect x="212.1" y="449.5" class="st4" width="0.1" height="3.1"/>
</g>
<g>
	<polygon class="st5" points="1.1,107.7 25.9,93.5 51,108 27.5,123 	"/>
	<polygon class="st6" points="1.1,107.7 25.9,93.5 51,108 27.5,123 	"/>
	<polygon class="st5" points="27.5,29.7 50.6,16.3 24.2,1.1 1.1,14.4 	"/>
	<polygon class="st6" points="27.5,29.7 50.6,16.3 24.2,1.1 1.1,14.4 	"/>
	<polygon class="st5" points="25.9,2 2.8,15.4 2.8,50 25.9,36.7 	"/>
	<polygon class="st5" points="27.5,64.3 50.2,45.9 27.5,33.8 1.1,49 	"/>
	<polygon class="st6" points="27.5,64.3 50.2,45.9 27.5,33.8 1.1,49 	"/>
	<polygon class="st5" points="25.9,34.8 2.8,48.1 2.8,108.7 25.9,95.4 	"/>
	<polygon class="st7" points="25.9,34.8 2.8,48.1 2.8,108.7 25.9,95.4 	"/>
	<path class="st5" d="M1.1,109.7V49l26.4,15.2v60.6L1.1,109.7z M2.7,108.7L25.8,122V65.2l-23-13.3L2.7,108.7z"/>
	<path class="st6" d="M1.1,109.7V49l26.4,15.2v60.6L1.1,109.7z M2.7,108.7L25.8,122V65.2l-23-13.3L2.7,108.7z"/>
	<path class="st5" d="M1.1,49V14.4l26.4,15.2v34.6L1.1,49z M2.7,48.1l23.1,13.3V30.6l-23-13.3L2.7,48.1z"/>
	<path class="st6" d="M1.1,49V14.4l26.4,15.2v34.6L1.1,49z M2.7,48.1l23.1,13.3V30.6l-23-13.3L2.7,48.1z"/>
	<polygon class="st5" points="27.5,124.9 27.5,29.7 50.6,16.3 51,111.3 	"/>
	<polygon class="st6" points="27.5,124.9 27.5,29.7 50.6,16.3 51,111.3 	"/>
	<path class="st8" d="M30.6,14.8c-0.1-0.1-0.2-0.1-0.4-0.1c-0.1,0-0.3,0-0.4,0.1s-0.2,0.2-0.3,0.3c-0.1,0.1-0.1,0.3-0.1,0.4
		c0,0.2,0,0.3,0.1,0.4c0.1,0.1,0.2,0.2,0.3,0.3c0.1,0.1,0.2,0.1,0.4,0.1c0.1,0,0.3,0,0.4-0.1s0.2-0.2,0.3-0.3
		c0.1-0.1,0.1-0.3,0.1-0.4c0-0.2,0-0.3-0.1-0.4S30.7,14.9,30.6,14.8"/>
	<polygon class="st8" points="22.6,15.6 23.6,15.6 23.1,14.4 	"/>
	<path class="st8" d="M25.7,7.8c-4.1,0-7.5,3.3-7.5,7.5c0,4.1,3.3,7.5,7.5,7.5c4.1,0,7.5-3.3,7.5-7.5S29.8,7.8,25.7,7.8 M27.1,15.8
		c0.1,0.2,0.2,0.3,0.4,0.4c0.2,0.1,0.4,0.1,0.6,0.1c0.3,0,0.6-0.1,0.8-0.3l0.1,0.1c-0.1,0.1-0.2,0.2-0.4,0.3
		c-0.2,0.1-0.3,0.1-0.5,0.1s-0.5-0.1-0.7-0.2S27,16,26.9,15.8c-0.1-0.2-0.2-0.4-0.2-0.7c0-0.2,0.1-0.5,0.2-0.7s0.3-0.4,0.5-0.5
		s0.4-0.2,0.7-0.2c0.2,0,0.4,0,0.5,0.1c0.2,0.1,0.3,0.1,0.4,0.3l-0.1,0.1c-0.2-0.2-0.5-0.3-0.8-0.3c-0.2,0-0.4,0-0.6,0.1
		s-0.3,0.2-0.4,0.4C27,14.8,27,15,27,15.2S27,15.6,27.1,15.8 M24.4,17.6L24,16.8h-1.8l-0.3,0.8h-1.7l2.1-4.9h1.6l2.1,4.9
		C26,17.6,24.4,17.6,24.4,17.6z M31.2,17.6h-4.4v-0.2h4.4V17.6z M31.1,16c-0.1,0.1-0.2,0.3-0.3,0.3c-0.1,0.1-0.3,0.1-0.5,0.1
		s-0.3,0-0.5-0.1c-0.1-0.1-0.3-0.2-0.3-0.3c-0.1-0.1-0.1-0.3-0.1-0.5s0-0.3,0.1-0.5c0.1-0.1,0.2-0.3,0.3-0.3
		c0.1-0.1,0.3-0.1,0.5-0.1s0.3,0,0.5,0.1c0.1,0.1,0.3,0.2,0.3,0.3c0.1,0.1,0.1,0.3,0.1,0.5C31.2,15.7,31.1,15.9,31.1,16 M26.8,12.8
		h4.4V13h-4.4V12.8z"/>
	<path class="st8" d="M47.3,94.1c-0.1,0.1-0.2,0.3-0.3,0.3c-0.1,0.1-0.3,0.1-0.5,0.1s-0.3,0-0.5-0.1s-0.3-0.2-0.3-0.3
		c-0.1-0.1-0.1-0.3-0.1-0.5c0-0.1,0-0.3,0.1-0.4c0-0.1,0.1-0.2,0.2-0.3L46,93c-0.1,0.2-0.2,0.3-0.2,0.6c0,0.2,0,0.3,0.1,0.4
		s0.2,0.2,0.3,0.3c0.1,0.1,0.3,0.1,0.4,0.1c0.2,0,0.3,0,0.4-0.1c0.1-0.1,0.2-0.2,0.3-0.3c0.1-0.1,0.1-0.3,0.1-0.4
		c0-0.2-0.1-0.4-0.2-0.6l0.1-0.1c0.1,0.1,0.2,0.2,0.2,0.3c0,0.1,0.1,0.2,0.1,0.4C47.4,93.8,47.4,94,47.3,94.1"/>
	<path class="st8" d="M47.3,92.4c-0.1,0.1-0.1,0.2-0.3,0.3c-0.1,0.1-0.2,0.1-0.4,0.1s-0.3,0-0.4-0.1c-0.1-0.1-0.2-0.1-0.3-0.3
		C46,92.3,46,92.2,46,92c0-0.1,0-0.3,0.1-0.4s0.1-0.2,0.3-0.3c0.1-0.1,0.2-0.1,0.4-0.1s0.3,0,0.4,0.1c0.1,0.1,0.2,0.1,0.3,0.3
		c0.1,0.1,0.1,0.2,0.1,0.4C47.4,92.2,47.4,92.3,47.3,92.4 M47.2,91.8c-0.1-0.1-0.1-0.2-0.2-0.2c-0.1,0-0.2-0.1-0.3-0.1
		s-0.2,0-0.3,0.1c-0.1,0-0.2,0.1-0.2,0.2s-0.1,0.2-0.1,0.3c0,0.1,0,0.2,0.1,0.3c0.1,0.1,0.1,0.2,0.2,0.2c0.1,0,0.2,0.1,0.3,0.1
		s0.2,0,0.3-0.1c0.1,0,0.2-0.1,0.2-0.2s0.1-0.2,0.1-0.3C47.3,91.9,47.3,91.8,47.2,91.8"/>
	<path class="st8" d="M46.1,89.8c0.1-0.1,0.2-0.2,0.4-0.2h0.8v0.1h-0.8C46.3,89.7,46.2,89.7,46.1,89.8C46,89.9,46,90,46,90.1
		c0,0.2,0,0.3,0.1,0.4s0.2,0.1,0.4,0.1h0.7v0.1H46v-0.1h0.3c-0.1,0-0.2-0.1-0.2-0.2c-0.1,0.1-0.1,0-0.1-0.2
		C46,90.1,46,89.9,46.1,89.8"/>
	<path class="st8" d="M47.3,88.9c-0.1,0.1-0.1,0.2-0.3,0.3c-0.1,0.1-0.2,0.1-0.4,0.1c-0.1,0-0.3,0-0.4-0.1c-0.1-0.1-0.2-0.1-0.3-0.3
		c0.1-0.1,0.1-0.2,0.1-0.3s0-0.2,0.1-0.3s0.1-0.2,0.2-0.2l0.1,0.1c-0.1,0.1-0.1,0.1-0.2,0.2c0,0.1-0.1,0.2-0.1,0.2
		c0,0.1,0,0.2,0.1,0.3c0,0.1,0.1,0.2,0.2,0.2c0.1,0,0.2,0.1,0.3,0.1s0.2,0,0.3-0.1s0.2-0.1,0.2-0.2s0.1-0.2,0.1-0.3
		c0-0.1,0-0.2-0.1-0.2c0-0.1-0.1-0.1-0.2-0.2l0.1-0.1c0.1,0.1,0.1,0.1,0.2,0.2c0,0.1,0.1,0.2,0.1,0.3C47.4,88.7,47.4,88.8,47.3,88.9
		"/>
	<path class="st8" d="M46.7,86.5v1.2c0.1,0,0.2,0,0.3-0.1s0.2-0.1,0.2-0.2s0.1-0.2,0.1-0.3c0-0.1,0-0.2,0-0.3c0-0.1-0.1-0.1-0.1-0.2
		l0.1-0.1c0.1,0.1,0.1,0.1,0.2,0.2c0,0.1,0.1,0.2,0.1,0.3c0,0.1,0,0.3-0.1,0.4s-0.1,0.2-0.3,0.3c-0.1,0.1-0.2,0.1-0.4,0.1
		c-0.1,0-0.3,0-0.4-0.1s-0.2-0.1-0.3-0.2C46,87.4,46,87.3,46,87.1s0-0.2,0.1-0.3c0.1-0.1,0.1-0.2,0.3-0.2
		C46.4,86.5,46.6,86.5,46.7,86.5L46.7,86.5z M46.2,87.4c0,0.1,0.1,0.1,0.2,0.2c0.1,0,0.2,0.1,0.3,0.1v-1.1c-0.1,0-0.2,0-0.3,0.1
		c-0.1,0-0.1,0.1-0.2,0.2c0,0.1-0.1,0.2-0.1,0.3C46.1,87.2,46.1,87.3,46.2,87.4"/>
	<path class="st8" d="M46.1,85c0.1-0.1,0.1-0.2,0.3-0.2c0.1-0.1,0.2-0.1,0.4-0.1s0.3,0,0.4,0.1c0.1,0.1,0.2,0.1,0.3,0.2
		s0.1,0.2,0.1,0.4c0,0.1,0,0.2-0.1,0.3c-0.1,0.1-0.1,0.2-0.2,0.2h0.8V86H46v-0.1h0.3c-0.1-0.1-0.2-0.1-0.3-0.2s0-0.2,0-0.4
		C46,85.2,46,85.1,46.1,85 M47.2,85.1c-0.1-0.1-0.1-0.2-0.2-0.2c-0.1,0-0.2-0.1-0.3-0.1s-0.2,0-0.3,0.1s-0.2,0.1-0.2,0.2
		s-0.1,0.2-0.1,0.3c0,0.1,0,0.2,0.1,0.3c0.1,0.1,0.1,0.2,0.2,0.2c0.1,0,0.2,0.1,0.3,0.1s0.2,0,0.3-0.1c0.1,0,0.2-0.1,0.2-0.2
		s0.1-0.2,0.1-0.3C47.3,85.2,47.3,85.2,47.2,85.1"/>
	<path class="st8" d="M47.3,83.5L47.3,83.5c0.1,0.1,0.1,0.2,0.1,0.3s0,0.2-0.1,0.3c-0.1,0.1-0.2,0.1-0.3,0.1h-0.9v0.3H46v-0.3h-0.3
		v-0.1H46v-0.4h0.1v0.4H47c0.1,0,0.2,0,0.2-0.1c0,0,0.1-0.1,0.1-0.2C47.3,83.7,47.3,83.7,47.3,83.5L47.3,83.5z"/>
	<path class="st8" d="M47.6,106.5v1.4l0.6,0.2v1.2l-3.6-1.6v-1.2l3.6-1.6v1.2L47.6,106.5z M46.8,106.8l-0.9,0.3l0.9,0.3V106.8z"/>
	<path class="st8" d="M47.4,103.2v0.3h0.9v1.2h-3.6V103c0-0.3,0.1-0.6,0.2-0.9c0.1-0.2,0.3-0.4,0.5-0.6c0.2-0.1,0.4-0.2,0.7-0.2
		s0.5,0.1,0.7,0.2s0.3,0.3,0.5,0.5l1.1-0.8v1.3L47.4,103.2z M45.7,102.8c-0.1,0.1-0.1,0.2-0.1,0.4v0.4h0.8v-0.4c0-0.2,0-0.3-0.1-0.4
		s-0.2-0.1-0.3-0.1S45.8,102.7,45.7,102.8"/>
	<rect x="44.7" y="99.8" class="st8" width="3.6" height="1.2"/>
	<path class="st8" d="M47.6,96.7v1.4l0.6,0.2v1.2L44.7,98v-1.2l3.6-1.6v1.2L47.6,96.7z M46.8,97.1l-0.9,0.3l0.9,0.3V97.1z"/>
	<rect x="44.7" y="91.6" class="st8" width="0.1" height="3.1"/>
	<rect x="48.1" y="91.6" class="st8" width="0.1" height="3.1"/>
</g>
</svg>
