<?xml version="1.0" encoding="utf-8"?>
<!-- Generator: Adobe Illustrator 23.1.0, SVG Export Plug-In . SVG Version: 6.00 Build 0)  -->
<svg version="1.1" id="Layer_1" xmlns="http://www.w3.org/2000/svg" xmlns:xlink="http://www.w3.org/1999/xlink" x="0px" y="0px"
	 width="52px" height="126px" viewBox="0 0 52 126" style="enable-background:new 0 0 52 126;" xml:space="preserve">
<style type="text/css">
	.st0{fill:#315C66;}
	.st1{fill:none;stroke:#FFFFFF;stroke-width:7.700000e-02;stroke-miterlimit:10;}
	.st2{fill:none;stroke:#F9FCFE;stroke-width:7.700000e-02;stroke-miterlimit:10;}
	.st3{fill:#FFFFFF;}
</style>
<g>
	<polygon class="st0" points="165.1,465.6 189.9,451.4 215,465.9 191.5,480.9 	"/>
	<polygon class="st1" points="165.1,465.6 189.9,451.4 215,465.9 191.5,480.9 	"/>
	<polygon class="st0" points="191.5,387.6 214.6,374.2 188.3,359 165.1,372.4 	"/>
	<polygon class="st1" points="191.5,387.6 214.6,374.2 188.3,359 165.1,372.4 	"/>
	<polygon class="st0" points="189.9,359.9 166.8,373.3 166.8,420.9 189.9,407.6 	"/>
	<polygon class="st0" points="191.6,435.2 214.3,416.8 191.6,404.7 165.2,420 	"/>
	<polygon class="st1" points="191.6,435.2 214.3,416.8 191.6,404.7 165.2,420 	"/>
	<polygon class="st0" points="189.9,405.7 166.8,419.1 166.8,466.6 189.9,453.3 	"/>
	<polygon class="st2" points="189.9,405.7 166.8,419.1 166.8,466.6 189.9,453.3 	"/>
	<path class="st0" d="M165.1,467.6V420l26.4,15.2v47.6L165.1,467.6z M166.8,466.6l23.1,13.3v-43.8l-23.1-13.3L166.8,466.6z"/>
	<path class="st1" d="M165.1,467.6V420l26.4,15.2v47.6L165.1,467.6z M166.8,466.6l23.1,13.3v-43.8l-23.1-13.3L166.8,466.6z"/>
	<path class="st0" d="M165.1,420v-47.6l26.4,15.2l0,47.6L165.1,420z M166.8,419l23.1,13.3v-43.8l-23.1-13.3L166.8,419z"/>
	<path class="st1" d="M165.1,420v-47.6l26.4,15.2l0,47.6L165.1,420z M166.8,419l23.1,13.3v-43.8l-23.1-13.3L166.8,419z"/>
	<polygon class="st0" points="191.5,482.8 191.5,387.6 214.6,374.2 215,469.3 	"/>
	<polygon class="st1" points="191.5,482.8 191.5,387.6 214.6,374.2 215,469.3 	"/>
	<path class="st3" d="M194.7,372.7c-0.1-0.1-0.2-0.1-0.4-0.1c-0.1,0-0.3,0-0.4,0.1c-0.1,0.1-0.2,0.2-0.3,0.3
		c-0.1,0.1-0.1,0.3-0.1,0.4c0,0.2,0,0.3,0.1,0.4c0.1,0.1,0.2,0.2,0.3,0.3c0.1,0.1,0.2,0.1,0.4,0.1c0.1,0,0.3,0,0.4-0.1
		c0.1-0.1,0.2-0.2,0.3-0.3c0.1-0.1,0.1-0.3,0.1-0.4c0-0.2,0-0.3-0.1-0.4C194.9,372.9,194.8,372.8,194.7,372.7"/>
	<polygon class="st3" points="186.7,373.5 187.6,373.5 187.1,372.3 	"/>
	<path class="st3" d="M189.7,365.7c-4.1,0-7.5,3.3-7.5,7.5c0,4.1,3.3,7.5,7.5,7.5c4.1,0,7.5-3.3,7.5-7.5
		C197.2,369,193.9,365.7,189.7,365.7 M191.2,373.7c0.1,0.2,0.2,0.3,0.4,0.4c0.2,0.1,0.4,0.1,0.6,0.1c0.3,0,0.6-0.1,0.8-0.3l0.1,0.1
		c-0.1,0.1-0.2,0.2-0.4,0.3c-0.2,0.1-0.3,0.1-0.5,0.1c-0.2,0-0.5-0.1-0.7-0.2c-0.2-0.1-0.4-0.3-0.5-0.5s-0.2-0.4-0.2-0.7
		c0-0.2,0.1-0.5,0.2-0.7c0.1-0.2,0.3-0.4,0.5-0.5c0.2-0.1,0.4-0.2,0.7-0.2c0.2,0,0.4,0,0.5,0.1c0.2,0.1,0.3,0.1,0.4,0.3l-0.1,0.1
		c-0.2-0.2-0.5-0.3-0.8-0.3c-0.2,0-0.4,0-0.6,0.1c-0.2,0.1-0.3,0.2-0.4,0.4c-0.1,0.2-0.1,0.4-0.1,0.6
		C191,373.3,191.1,373.5,191.2,373.7 M188.4,375.6l-0.3-0.8h-1.8l-0.3,0.8h-1.7l2.1-4.9h1.6l2.1,4.9H188.4z M195.2,375.6h-4.4v-0.2
		h4.4V375.6z M195.1,373.9c-0.1,0.1-0.2,0.3-0.3,0.3c-0.1,0.1-0.3,0.1-0.5,0.1s-0.3,0-0.5-0.1c-0.1-0.1-0.3-0.2-0.3-0.3
		c-0.1-0.1-0.1-0.3-0.1-0.5c0-0.2,0-0.3,0.1-0.5c0.1-0.1,0.2-0.3,0.3-0.3c0.1-0.1,0.3-0.1,0.5-0.1s0.3,0,0.5,0.1
		c0.1,0.1,0.3,0.2,0.3,0.3s0.1,0.3,0.1,0.5C195.2,373.6,195.2,373.8,195.1,373.9 M190.8,370.7h4.4v0.2h-4.4V370.7z"/>
	<path class="st3" d="M211.3,452c-0.1,0.1-0.2,0.3-0.3,0.3c-0.1,0.1-0.3,0.1-0.5,0.1c-0.2,0-0.3,0-0.5-0.1c-0.1-0.1-0.3-0.2-0.3-0.3
		c-0.1-0.1-0.1-0.3-0.1-0.5c0-0.1,0-0.3,0.1-0.4c0-0.1,0.1-0.2,0.2-0.3l0.1,0.1c-0.1,0.2-0.2,0.3-0.2,0.6c0,0.2,0,0.3,0.1,0.4
		c0.1,0.1,0.2,0.2,0.3,0.3c0.1,0.1,0.3,0.1,0.4,0.1c0.2,0,0.3,0,0.4-0.1c0.1-0.1,0.2-0.2,0.3-0.3c0.1-0.1,0.1-0.3,0.1-0.4
		c0-0.2-0.1-0.4-0.2-0.6l0.1-0.1c0.1,0.1,0.2,0.2,0.2,0.3c0,0.1,0.1,0.2,0.1,0.4C211.4,451.7,211.4,451.9,211.3,452"/>
	<path class="st3" d="M211.4,450.3c-0.1,0.1-0.1,0.2-0.3,0.3c-0.1,0.1-0.2,0.1-0.4,0.1c-0.1,0-0.3,0-0.4-0.1
		c-0.1-0.1-0.2-0.1-0.3-0.3c-0.1-0.1-0.1-0.2-0.1-0.4c0-0.1,0-0.3,0.1-0.4c0.1-0.1,0.1-0.2,0.3-0.3c0.1-0.1,0.2-0.1,0.4-0.1
		c0.1,0,0.3,0,0.4,0.1c0.1,0.1,0.2,0.1,0.3,0.3c0.1,0.1,0.1,0.2,0.1,0.4C211.4,450.1,211.4,450.2,211.4,450.3 M211.2,449.7
		c-0.1-0.1-0.1-0.2-0.2-0.2c-0.1,0-0.2-0.1-0.3-0.1c-0.1,0-0.2,0-0.3,0.1c-0.1,0-0.2,0.1-0.2,0.2c0,0.1-0.1,0.2-0.1,0.3
		c0,0.1,0,0.2,0.1,0.3c0.1,0.1,0.1,0.2,0.2,0.2c0.1,0,0.2,0.1,0.3,0.1c0.1,0,0.2,0,0.3-0.1c0.1,0,0.2-0.1,0.2-0.2
		c0-0.1,0.1-0.2,0.1-0.3C211.3,449.8,211.3,449.8,211.2,449.7"/>
	<path class="st3" d="M210.2,447.7c0.1-0.1,0.2-0.2,0.4-0.2h0.8v0.1h-0.8c-0.2,0-0.3,0-0.4,0.1c-0.1,0.1-0.1,0.2-0.1,0.3
		c0,0.2,0,0.3,0.1,0.4c0.1,0.1,0.2,0.1,0.4,0.1h0.7v0.1H210v-0.1h0.3c-0.1,0-0.2-0.1-0.2-0.2c-0.1-0.1-0.1-0.2-0.1-0.3
		C210,448,210.1,447.8,210.2,447.7"/>
	<path class="st3" d="M211.4,446.8c-0.1,0.1-0.1,0.2-0.3,0.3c-0.1,0.1-0.2,0.1-0.4,0.1c-0.1,0-0.3,0-0.4-0.1
		c-0.1-0.1-0.2-0.1-0.3-0.3c-0.1-0.1-0.1-0.2-0.1-0.4c0-0.1,0-0.2,0.1-0.3c0-0.1,0.1-0.2,0.2-0.2l0.1,0.1c-0.1,0.1-0.1,0.1-0.2,0.2
		c0,0.1-0.1,0.2-0.1,0.2c0,0.1,0,0.2,0.1,0.3c0,0.1,0.1,0.2,0.2,0.2c0.1,0,0.2,0.1,0.3,0.1c0.1,0,0.2,0,0.3-0.1
		c0.1-0.1,0.2-0.1,0.2-0.2c0-0.1,0.1-0.2,0.1-0.3c0-0.1,0-0.2-0.1-0.2c0-0.1-0.1-0.1-0.2-0.2l0.1-0.1c0.1,0.1,0.1,0.1,0.2,0.2
		c0,0.1,0.1,0.2,0.1,0.3C211.4,446.6,211.4,446.7,211.4,446.8"/>
	<path class="st3" d="M210.8,444.4v1.2c0.1,0,0.2,0,0.3-0.1c0.1-0.1,0.2-0.1,0.2-0.2c0-0.1,0.1-0.2,0.1-0.3c0-0.1,0-0.2,0-0.3
		c0-0.1-0.1-0.1-0.1-0.2l0.1-0.1c0.1,0.1,0.1,0.1,0.2,0.2c0,0.1,0.1,0.2,0.1,0.3c0,0.1,0,0.3-0.1,0.4c-0.1,0.1-0.1,0.2-0.3,0.3
		c-0.1,0.1-0.2,0.1-0.4,0.1c-0.1,0-0.3,0-0.4-0.1s-0.2-0.1-0.3-0.2c-0.1-0.1-0.1-0.2-0.1-0.3s0-0.2,0.1-0.3c0.1-0.1,0.1-0.2,0.3-0.2
		C210.5,444.4,210.6,444.4,210.8,444.4L210.8,444.4z M210.2,445.3c0,0.1,0.1,0.1,0.2,0.2c0.1,0,0.2,0.1,0.3,0.1v-1.1
		c-0.1,0-0.2,0-0.3,0.1c-0.1,0-0.1,0.1-0.2,0.2c0,0.1-0.1,0.2-0.1,0.3C210.1,445.1,210.2,445.2,210.2,445.3"/>
	<path class="st3" d="M210.1,442.9c0.1-0.1,0.1-0.2,0.3-0.2c0.1-0.1,0.2-0.1,0.4-0.1s0.3,0,0.4,0.1c0.1,0.1,0.2,0.1,0.3,0.2
		c0.1,0.1,0.1,0.2,0.1,0.4c0,0.1,0,0.2-0.1,0.3c-0.1,0.1-0.1,0.2-0.2,0.2h0.8v0.1H210v-0.1h0.3c-0.1-0.1-0.2-0.1-0.3-0.2
		c-0.1-0.1-0.1-0.2-0.1-0.3C210,443.1,210.1,443,210.1,442.9 M211.2,443c-0.1-0.1-0.1-0.2-0.2-0.2c-0.1-0.1-0.2-0.1-0.3-0.1
		c-0.1,0-0.2,0-0.3,0.1c-0.1,0-0.2,0.1-0.2,0.2c0,0.1-0.1,0.2-0.1,0.3c0,0.1,0,0.2,0.1,0.3c0.1,0.1,0.1,0.2,0.2,0.2
		c0.1,0,0.2,0.1,0.3,0.1c0.1,0,0.2,0,0.3-0.1c0.1,0,0.2-0.1,0.2-0.2c0-0.1,0.1-0.2,0.1-0.3C211.3,443.2,211.3,443.1,211.2,443"/>
	<path class="st3" d="M211.3,441.5c0,0,0.1,0.1,0.1,0.1s0,0.1,0,0.2c0,0.1,0,0.2-0.1,0.3c-0.1,0.1-0.2,0.1-0.3,0.1h-0.9v0.3H210
		v-0.3h-0.3V442h0.3v-0.4h0.1v0.4h0.9c0.1,0,0.2,0,0.2-0.1c0,0,0.1-0.1,0.1-0.2C211.3,441.6,211.3,441.6,211.3,441.5L211.3,441.5z"
		/>
	<path class="st3" d="M211.7,464.4v1.4l0.6,0.2v1.2l-3.6-1.6v-1.2l3.6-1.6v1.2L211.7,464.4z M210.8,464.7l-0.9,0.3l0.9,0.3V464.7z"
		/>
	<path class="st3" d="M211.4,461.2v0.3h0.9v1.2h-3.6V461c0-0.3,0.1-0.6,0.2-0.9c0.1-0.2,0.3-0.4,0.5-0.6c0.2-0.1,0.4-0.2,0.7-0.2
		c0.3,0,0.5,0.1,0.7,0.2c0.2,0.1,0.3,0.3,0.5,0.5l1.1-0.8v1.3L211.4,461.2z M209.8,460.7c-0.1,0.1-0.1,0.2-0.1,0.4v0.4h0.8V461
		c0-0.2,0-0.3-0.1-0.4c-0.1-0.1-0.2-0.1-0.3-0.1S209.8,460.6,209.8,460.7"/>
	<rect x="208.7" y="457.7" class="st3" width="3.6" height="1.2"/>
	<path class="st3" d="M211.7,454.7v1.4l0.6,0.2v1.2l-3.6-1.6v-1.2l3.6-1.6v1.2L211.7,454.7z M210.8,455l-0.9,0.3l0.9,0.3V455z"/>
	<rect x="208.7" y="449.5" class="st3" width="0.1" height="3.1"/>
	<rect x="212.1" y="449.5" class="st3" width="0.1" height="3.1"/>
</g>
<g>
	<polygon class="st0" points="0.3,93.5 0.3,77.6 25.8,63 25.8,78.7 	"/>
	<polygon class="st0" points="0.3,77.7 0.3,61.9 25.8,47.4 25.8,63 	"/>
	<polyline class="st0" points="0.6,30.8 0.3,14.9 24.2,1.1 24.7,16.5 0.3,30.5 	"/>
	<polygon class="st0" points="0.3,46.3 0.3,30.4 25.5,16 25.8,31.7 	"/>
	<polygon class="st0" points="0.3,62 0.3,46.2 25.8,31.2 25.8,47.4 	"/>
	<polygon class="st0" points="0.3,109.2 0.4,62.5 25.8,47.4 25.8,94.3 	"/>
	<polyline class="st1" points="0.3,109.2 0.4,62.5 25.8,47.4 25.8,94.3 0.3,109.2 	"/>
	<polygon class="st0" points="0.3,109.2 25.8,94.5 51.8,109.4 27.5,124.9 	"/>
	<polygon class="st1" points="0.3,109.2 25.8,94.5 51.8,109.4 27.5,124.9 	"/>
	<polygon class="st0" points="0.3,62 25.8,47.3 51.8,62.3 27.5,77.8 	"/>
	<polygon class="st1" points="0.3,62 25.8,47.3 51.8,62.3 27.5,77.8 	"/>
	<polygon class="st0" points="0.3,46.3 25.9,31.6 51.8,46.5 27.6,62 	"/>
	<polygon class="st1" points="0.3,46.3 25.9,31.6 51.8,46.5 27.6,62 	"/>
	<polygon class="st0" points="0.3,30.6 25.8,15.9 51.8,30.9 27.5,46.4 	"/>
	<polygon class="st1" points="0.3,30.6 25.8,15.9 51.8,30.9 27.5,46.4 	"/>
	<path class="st0" d="M0.3,109.2l0-47.2l27.2,15.7l0,47.2L0.3,109.2z M2,108.2L25.8,122l-0.4-43.2L2,65.3L2,108.2z"/>
	<path class="st1" d="M0.3,109.2l0-47.2l27.2,15.7l0,47.2L0.3,109.2z M2,108.2L25.8,122l-0.4-43.2L2,65.3L2,108.2z"/>
	<path class="st0" d="M0.3,62l0-15.6l27.2,15.7l0,15.6L0.3,62z M2,61l23.8,13.8V63L2,49.3L2,61z"/>
	<path class="st1" d="M0.3,62l0-15.6l27.2,15.7l0,15.6L0.3,62z M2,61l23.8,13.8V63L2,49.3L2,61z"/>
	<path class="st0" d="M0.3,46.4l0-15.6l27.2,15.7l0,15.6L0.3,46.4z M2,45.4l23.8,13.8V47.4L2,33.6L2,45.4z"/>
	<path class="st1" d="M0.3,46.4l0-15.6l27.2,15.7l0,15.6L0.3,46.4z M2,45.4l23.8,13.8V47.4L2,33.6L2,45.4z"/>
	<path class="st0" d="M0.3,30.7l0-15.8l27.2,15.7l0,15.8L0.3,30.7z M2,29.7l23.8,13.8V31.7L2,18L2,29.7z"/>
	<path class="st1" d="M0.3,30.7l0-15.8l27.2,15.7l0,15.8L0.3,30.7z M2,29.7l23.8,13.8V31.7L2,18L2,29.7z"/>
	<polygon class="st0" points="3.7,87.6 2,86.6 2,65.3 25.4,78.7 25.4,80.5 3.7,67.9 	"/>
	<polygon class="st1" points="3.7,87.6 2,86.6 2,65.3 25.4,78.7 25.4,80.5 3.7,67.9 	"/>
	<polygon class="st0" points="3.7,69.9 25.5,82.5 25.5,90.4 3.7,77.7 	"/>
	<polygon class="st1" points="3.7,69.9 25.5,82.5 25.5,90.4 3.7,77.7 	"/>
	<polygon class="st0" points="25.6,92.4 25.6,100.2 3.7,87.6 3.8,79.7 	"/>
	<polygon class="st1" points="25.6,92.4 25.6,100.2 3.7,87.6 3.8,79.7 	"/>
	<polygon class="st0" points="0.3,14.9 27.5,30.6 51.4,16.8 24.1,1.1 	"/>
	<polygon class="st1" points="0.3,14.9 27.5,30.6 51.4,16.8 24.1,1.1 	"/>
	<polygon class="st0" points="27.5,124.9 27.5,30.6 51.4,16.8 51.8,110.9 	"/>
	<polygon class="st1" points="27.5,124.9 27.5,30.6 51.4,16.8 51.8,110.9 	"/>
	<path class="st3" d="M48.5,94.1c-0.1,0.1-0.2,0.3-0.3,0.3c-0.1,0.1-0.3,0.1-0.5,0.1c-0.2,0-0.3,0-0.5-0.1s-0.3-0.2-0.3-0.3
		c-0.1-0.1-0.1-0.3-0.1-0.5c0-0.1,0-0.3,0.1-0.4c0-0.1,0.1-0.2,0.2-0.3l0.1,0.1c-0.1,0.2-0.2,0.3-0.2,0.6c0,0.2,0,0.3,0.1,0.4
		c0.1,0.1,0.2,0.2,0.3,0.3c0.1,0.1,0.3,0.1,0.4,0.1c0.2,0,0.3,0,0.4-0.1c0.1-0.1,0.2-0.2,0.3-0.3c0.1-0.1,0.1-0.3,0.1-0.4
		c0-0.2-0.1-0.4-0.2-0.6l0.1-0.1c0.1,0.1,0.2,0.2,0.2,0.3c0,0.1,0.1,0.2,0.1,0.4C48.6,93.8,48.6,94,48.5,94.1"/>
	<path class="st3" d="M48.5,92.4c-0.1,0.1-0.1,0.2-0.3,0.3c-0.1,0.1-0.2,0.1-0.4,0.1s-0.3,0-0.4-0.1c-0.1-0.1-0.2-0.1-0.3-0.3
		c-0.1-0.1-0.1-0.2-0.1-0.4c0-0.1,0-0.3,0.1-0.4c0.1-0.1,0.1-0.2,0.3-0.3c0.1-0.1,0.2-0.1,0.4-0.1s0.3,0,0.4,0.1
		c0.1,0.1,0.2,0.1,0.3,0.3c0.1,0.1,0.1,0.2,0.1,0.4C48.6,92.2,48.6,92.3,48.5,92.4 M48.4,91.8c-0.1-0.1-0.1-0.2-0.2-0.2
		c-0.1,0-0.2-0.1-0.3-0.1s-0.2,0-0.3,0.1c-0.1,0-0.2,0.1-0.2,0.2c0,0.1-0.1,0.2-0.1,0.3c0,0.1,0,0.2,0.1,0.3
		c0.1,0.1,0.1,0.2,0.2,0.2c0.1,0,0.2,0.1,0.3,0.1s0.2,0,0.3-0.1c0.1,0,0.2-0.1,0.2-0.2c0-0.1,0.1-0.2,0.1-0.3
		C48.5,91.9,48.5,91.8,48.4,91.8"/>
	<path class="st3" d="M47.3,89.8c0.1-0.1,0.2-0.2,0.4-0.2h0.8v0.1h-0.8c-0.2,0-0.3,0-0.4,0.1c-0.1,0.1-0.1,0.2-0.1,0.3
		c0,0.2,0,0.3,0.1,0.4c0.1,0.1,0.2,0.1,0.4,0.1h0.7v0.1h-1.4v-0.1h0.3c-0.1,0-0.2-0.1-0.2-0.2c-0.1-0.1-0.1-0.2-0.1-0.3
		C47.2,90.1,47.2,89.9,47.3,89.8"/>
	<path class="st3" d="M48.5,88.9c-0.1,0.1-0.1,0.2-0.3,0.3c-0.1,0.1-0.2,0.1-0.4,0.1c-0.1,0-0.3,0-0.4-0.1c-0.1-0.1-0.2-0.1-0.3-0.3
		c-0.1-0.1-0.1-0.2-0.1-0.4c0-0.1,0-0.2,0.1-0.3c0-0.1,0.1-0.2,0.2-0.2l0.1,0.1c-0.1,0.1-0.1,0.1-0.2,0.2c0,0.1-0.1,0.2-0.1,0.2
		c0,0.1,0,0.2,0.1,0.3c0,0.1,0.1,0.2,0.2,0.2c0.1,0,0.2,0.1,0.3,0.1c0.1,0,0.2,0,0.3-0.1c0.1-0.1,0.2-0.1,0.2-0.2
		c0-0.1,0.1-0.2,0.1-0.3c0-0.1,0-0.2-0.1-0.2c0-0.1-0.1-0.1-0.2-0.2l0.1-0.1c0.1,0.1,0.1,0.1,0.2,0.2c0,0.1,0.1,0.2,0.1,0.3
		C48.6,88.7,48.6,88.8,48.5,88.9"/>
	<path class="st3" d="M47.9,86.5v1.2c0.1,0,0.2,0,0.3-0.1c0.1-0.1,0.2-0.1,0.2-0.2c0-0.1,0.1-0.2,0.1-0.3c0-0.1,0-0.2,0-0.3
		c0-0.1-0.1-0.1-0.1-0.2l0.1-0.1c0.1,0.1,0.1,0.1,0.2,0.2c0,0.1,0.1,0.2,0.1,0.3c0,0.1,0,0.3-0.1,0.4c-0.1,0.1-0.1,0.2-0.3,0.3
		c-0.1,0.1-0.2,0.1-0.4,0.1c-0.1,0-0.3,0-0.4-0.1s-0.2-0.1-0.3-0.2c-0.1-0.1-0.1-0.2-0.1-0.3s0-0.2,0.1-0.3c0.1-0.1,0.1-0.2,0.3-0.2
		C47.6,86.5,47.8,86.5,47.9,86.5L47.9,86.5z M47.4,87.4c0,0.1,0.1,0.1,0.2,0.2c0.1,0,0.2,0.1,0.3,0.1v-1.1c-0.1,0-0.2,0-0.3,0.1
		c-0.1,0-0.1,0.1-0.2,0.2c0,0.1-0.1,0.2-0.1,0.3C47.3,87.2,47.3,87.3,47.4,87.4"/>
	<path class="st3" d="M47.3,85c0.1-0.1,0.1-0.2,0.3-0.2c0.1-0.1,0.2-0.1,0.4-0.1s0.3,0,0.4,0.1c0.1,0.1,0.2,0.1,0.3,0.2
		c0.1,0.1,0.1,0.2,0.1,0.4c0,0.1,0,0.2-0.1,0.3c-0.1,0.1-0.1,0.2-0.2,0.2h0.8v0.1h-1.9v-0.1h0.3c-0.1-0.1-0.2-0.1-0.3-0.2
		s-0.1-0.2-0.1-0.3C47.2,85.2,47.2,85.1,47.3,85 M48.4,85.1c-0.1-0.1-0.1-0.2-0.2-0.2c-0.1-0.1-0.2-0.1-0.3-0.1s-0.2,0-0.3,0.1
		c-0.1,0-0.2,0.1-0.2,0.2c0,0.1-0.1,0.2-0.1,0.3c0,0.1,0,0.2,0.1,0.3c0.1,0.1,0.1,0.2,0.2,0.2c0.1,0,0.2,0.1,0.3,0.1s0.2,0,0.3-0.1
		c0.1,0,0.2-0.1,0.2-0.2c0-0.1,0.1-0.2,0.1-0.3C48.5,85.2,48.5,85.2,48.4,85.1"/>
	<path class="st3" d="M48.5,83.5c0,0,0.1,0.1,0.1,0.1s0,0.1,0,0.2c0,0.1,0,0.2-0.1,0.3c-0.1,0.1-0.2,0.1-0.3,0.1h-0.9v0.3h-0.1v-0.3
		h-0.3v-0.1h0.3v-0.4h0.1v0.4h0.9c0.1,0,0.2,0,0.2-0.1c0,0,0.1-0.1,0.1-0.2C48.5,83.7,48.5,83.7,48.5,83.5L48.5,83.5z"/>
	<path class="st3" d="M48.8,106.5v1.4l0.6,0.2v1.2l-3.6-1.6v-1.2l3.6-1.6v1.2L48.8,106.5z M48,106.8l-0.9,0.3l0.9,0.3V106.8z"/>
	<path class="st3" d="M48.6,103.2v0.3h0.9v1.2h-3.6v-1.7c0-0.3,0.1-0.6,0.2-0.9c0.1-0.2,0.3-0.4,0.5-0.6c0.2-0.1,0.4-0.2,0.7-0.2
		c0.3,0,0.5,0.1,0.7,0.2c0.2,0.1,0.3,0.3,0.5,0.5l1.1-0.8v1.3L48.6,103.2z M46.9,102.8c-0.1,0.1-0.1,0.2-0.1,0.4v0.4h0.8v-0.4
		c0-0.2,0-0.3-0.1-0.4c-0.1-0.1-0.2-0.1-0.3-0.1S47,102.7,46.9,102.8"/>
	<rect x="45.9" y="99.8" class="st3" width="3.6" height="1.2"/>
	<path class="st3" d="M48.8,96.7v1.4l0.6,0.2v1.2L45.9,98v-1.2l3.6-1.6v1.2L48.8,96.7z M48,97.1l-0.9,0.3l0.9,0.3V97.1z"/>
	<rect x="45.9" y="91.6" class="st3" width="0.1" height="3.1"/>
	<rect x="49.3" y="91.6" class="st3" width="0.1" height="3.1"/>
	<path class="st3" d="M30.8,15.6c-0.1-0.1-0.2-0.1-0.4-0.1c-0.1,0-0.3,0-0.4,0.1c-0.1,0.1-0.2,0.2-0.3,0.3c-0.1,0.1-0.1,0.3-0.1,0.4
		c0,0.2,0,0.3,0.1,0.4c0.1,0.1,0.2,0.2,0.3,0.3c0.1,0.1,0.2,0.1,0.4,0.1c0.1,0,0.3,0,0.4-0.1c0.1-0.1,0.2-0.2,0.3-0.3
		c0.1-0.1,0.1-0.3,0.1-0.4c0-0.2,0-0.3-0.1-0.4C31,15.8,30.9,15.7,30.8,15.6"/>
	<polygon class="st3" points="22.8,16.4 23.7,16.4 23.2,15.2 	"/>
	<path class="st3" d="M25.8,8.6c-4.1,0-7.5,3.3-7.5,7.5c0,4.1,3.3,7.5,7.5,7.5c4.1,0,7.5-3.3,7.5-7.5C33.3,11.9,30,8.6,25.8,8.6
		 M27.3,16.6c0.1,0.2,0.2,0.3,0.4,0.4c0.2,0.1,0.4,0.1,0.6,0.1c0.3,0,0.6-0.1,0.8-0.3l0.1,0.1c-0.1,0.1-0.2,0.2-0.4,0.3
		c-0.2,0.1-0.3,0.1-0.5,0.1c-0.2,0-0.5-0.1-0.7-0.2c-0.2-0.1-0.4-0.3-0.5-0.5c-0.1-0.2-0.2-0.4-0.2-0.7c0-0.2,0.1-0.5,0.2-0.7
		c0.1-0.2,0.3-0.3,0.5-0.5c0.2-0.1,0.4-0.2,0.7-0.2c0.2,0,0.4,0,0.5,0.1c0.2,0.1,0.3,0.1,0.4,0.3L29,15.2c-0.2-0.2-0.5-0.3-0.8-0.3
		c-0.2,0-0.4,0-0.6,0.1c-0.2,0.1-0.3,0.2-0.4,0.4c-0.1,0.2-0.1,0.4-0.1,0.6C27.1,16.2,27.2,16.4,27.3,16.6 M24.5,18.5l-0.3-0.8h-1.8
		L22,18.5h-1.7l2.1-4.9h1.6l2.1,4.9H24.5z M31.3,18.5h-4.4v-0.2h4.4V18.5z M31.2,16.8c-0.1,0.1-0.2,0.3-0.3,0.3
		c-0.1,0.1-0.3,0.1-0.5,0.1c-0.2,0-0.3,0-0.5-0.1c-0.1-0.1-0.3-0.2-0.3-0.3c-0.1-0.1-0.1-0.3-0.1-0.5c0-0.2,0-0.4,0.1-0.5
		c0.1-0.1,0.2-0.3,0.3-0.3c0.1-0.1,0.3-0.1,0.5-0.1c0.2,0,0.3,0,0.5,0.1c0.1,0.1,0.3,0.2,0.3,0.3c0.1,0.1,0.1,0.3,0.1,0.5
		C31.3,16.5,31.3,16.7,31.2,16.8 M26.9,13.6h4.4v0.2h-4.4V13.6z"/>
</g>
</svg>
