<svg id="Layer_1" data-name="Layer 1" xmlns="http://www.w3.org/2000/svg" width="172.56" height="24" viewBox="0 0 172.56 24"><title>aria-logo</title><path d="M102.57,18a6.13,6.13,0,0,1-2.34-2.29,6.34,6.34,0,0,1-.86-3.27,6.34,6.34,0,0,1,.86-3.27,6.2,6.2,0,0,1,2.34-2.29A6.71,6.71,0,0,1,105.9,6a7.1,7.1,0,0,1,2.52.44,5.26,5.26,0,0,1,2,1.3l-.58.6a5.25,5.25,0,0,0-3.86-1.5,5.81,5.81,0,0,0-2.88.72,5.25,5.25,0,0,0-2,2,5.53,5.53,0,0,0-.74,2.83,5.53,5.53,0,0,0,.74,2.83,5.25,5.25,0,0,0,2,2,5.81,5.81,0,0,0,2.88.72,5.3,5.3,0,0,0,3.86-1.51l.58.59a5.24,5.24,0,0,1-2,1.31,6.87,6.87,0,0,1-2.51.45,6.71,6.71,0,0,1-3.33-.82" transform="translate(-0.78 -0.5)" style="fill:#315c66"/><path d="M114,18.16a4.36,4.36,0,0,1-1.68-1.7,4.87,4.87,0,0,1-.61-2.45,4.87,4.87,0,0,1,.61-2.45A4.43,4.43,0,0,1,114,9.86a5,5,0,0,1,4.8,0,4.43,4.43,0,0,1,1.68,1.7,4.87,4.87,0,0,1,.61,2.45,4.87,4.87,0,0,1-.61,2.45,4.36,4.36,0,0,1-1.68,1.7,5,5,0,0,1-4.8,0m4.33-.7a3.57,3.57,0,0,0,1.35-1.4,4.45,4.45,0,0,0,0-4.1,3.57,3.57,0,0,0-1.35-1.4,4,4,0,0,0-3.86,0,3.57,3.57,0,0,0-1.35,1.4,4.45,4.45,0,0,0,0,4.1,3.57,3.57,0,0,0,1.35,1.4,3.91,3.91,0,0,0,3.86,0" transform="translate(-0.78 -0.5)" style="fill:#315c66"/><path d="M131.25,10.27a4,4,0,0,1,1,3V18.7h-.89V13.29a3.35,3.35,0,0,0-.8-2.41,3,3,0,0,0-2.24-.82,3.48,3.48,0,0,0-2.61,1,3.67,3.67,0,0,0-1,2.67v5h-.9V9.32h.86v2a3.67,3.67,0,0,1,1.45-1.55,4.46,4.46,0,0,1,2.27-.55,3.77,3.77,0,0,1,2.79,1" transform="translate(-0.78 -0.5)" style="fill:#315c66"/><path d="M137.27,18.16a4.32,4.32,0,0,1-1.69-1.7A4.87,4.87,0,0,1,135,14a4.92,4.92,0,0,1,.61-2.47,4.29,4.29,0,0,1,1.69-1.69,5,5,0,0,1,2.45-.6,4.67,4.67,0,0,1,2.06.44,3.79,3.79,0,0,1,1.5,1.28l-.67.49a3.09,3.09,0,0,0-1.25-1.05,3.68,3.68,0,0,0-1.64-.35,3.92,3.92,0,0,0-2,.49,3.52,3.52,0,0,0-1.37,1.39,4.22,4.22,0,0,0-.49,2.07,4.22,4.22,0,0,0,.49,2.07,3.52,3.52,0,0,0,1.37,1.39,3.92,3.92,0,0,0,2,.5,3.83,3.83,0,0,0,1.64-.35,3.19,3.19,0,0,0,1.25-1.06l.67.49a3.79,3.79,0,0,1-1.5,1.28,4.67,4.67,0,0,1-2.06.44,4.87,4.87,0,0,1-2.45-.61" transform="translate(-0.78 -0.5)" style="fill:#315c66"/><path d="M153.74,14.23h-8.07a3.86,3.86,0,0,0,.56,1.95,3.45,3.45,0,0,0,1.41,1.32,4.25,4.25,0,0,0,2,.47,4.34,4.34,0,0,0,1.7-.34,3.25,3.25,0,0,0,1.3-1l.53.6a4,4,0,0,1-1.54,1.13,5.14,5.14,0,0,1-2,.39,5.06,5.06,0,0,1-2.5-.61,4.34,4.34,0,0,1-1.71-1.69,4.79,4.79,0,0,1-.62-2.46,5.07,5.07,0,0,1,.58-2.45A4.32,4.32,0,0,1,147,9.86a4.66,4.66,0,0,1,4.59,0,4.18,4.18,0,0,1,1.6,1.68,5,5,0,0,1,.59,2.44Zm-6.24-3.75a3.29,3.29,0,0,0-1.27,1.24,4,4,0,0,0-.54,1.8h7.19a3.8,3.8,0,0,0-.54-1.79,3.46,3.46,0,0,0-1.28-1.24,3.78,3.78,0,0,0-3.56,0" transform="translate(-0.78 -0.5)" style="fill:#315c66"/><path d="M163.63,9.86a4.35,4.35,0,0,1,1.66,1.69,5,5,0,0,1,.6,2.46,5,5,0,0,1-.6,2.47,4.22,4.22,0,0,1-1.66,1.69,4.75,4.75,0,0,1-2.38.6,4.38,4.38,0,0,1-2.24-.58,4,4,0,0,1-1.57-1.63v5.63h-.9V9.32h.87v2.21A4,4,0,0,1,159,9.85a4.4,4.4,0,0,1,2.27-.6,4.66,4.66,0,0,1,2.38.61m-.49,7.6a3.52,3.52,0,0,0,1.36-1.4,4.17,4.17,0,0,0,.49-2,4.17,4.17,0,0,0-.49-2,3.52,3.52,0,0,0-1.36-1.4,4,4,0,0,0-3.87,0,3.57,3.57,0,0,0-1.35,1.4,4.17,4.17,0,0,0-.49,2,4.17,4.17,0,0,0,.49,2,3.57,3.57,0,0,0,1.35,1.4,3.93,3.93,0,0,0,3.87,0" transform="translate(-0.78 -0.5)" style="fill:#315c66"/><path d="M173.34,18.11a2.2,2.2,0,0,1-.86.49,3.2,3.2,0,0,1-1.07.17,2.55,2.55,0,0,1-1.89-.67,2.58,2.58,0,0,1-.66-1.88V10.09h-1.73V9.32h1.73V7.27h.9V9.32h3v.77h-3v6a2,2,0,0,0,.44,1.4,1.71,1.71,0,0,0,1.3.47,2.07,2.07,0,0,0,1.46-.52Z" transform="translate(-0.78 -0.5)" style="fill:#315c66"/><path d="M19.74,20.32H10.62L9,24.5H.78L11.27.5h8l10.49,24H21.35Zm-2.23-5.83-2.33-6-2.33,6Z" transform="translate(-0.78 -0.5)" style="fill:#231f20"/><path d="M41.3,18.47H39.11v6H31V.5H42.57a14.22,14.22,0,0,1,5.8,1.1,8.54,8.54,0,0,1,3.8,3.15,8.62,8.62,0,0,1,1.34,4.8A8.44,8.44,0,0,1,52.34,14,8.11,8.11,0,0,1,49,17.09l5,7.41H45.38Zm3.23-11a3.63,3.63,0,0,0-2.47-.74h-3v5.62h3a3.63,3.63,0,0,0,2.47-.73,2.7,2.7,0,0,0,.82-2.08,2.66,2.66,0,0,0-.82-2.07" transform="translate(-0.78 -0.5)" style="fill:#231f20"/><rect x="55.78" width="8.09" height="24" style="fill:#231f20"/><path d="M84.91,20.32H75.79L74.18,24.5H66L76.45.5h8l10.49,24H86.53Zm-2.22-5.83-2.34-6-2.33,6Z" transform="translate(-0.78 -0.5)" style="fill:#231f20"/><rect x="98.39" width="20.52" height="0.96" style="fill:#315c66"/><rect x="98.39" y="23.01" width="20.52" height="0.96" style="fill:#315c66"/></svg>