<?xml version="1.0" encoding="utf-8"?>
<!-- Generator: Adobe Illustrator 23.1.0, SVG Export Plug-In . SVG Version: 6.00 Build 0)  -->
<svg version="1.1" id="Layer_1" xmlns="http://www.w3.org/2000/svg" xmlns:xlink="http://www.w3.org/1999/xlink" x="0px" y="0px"
	 width="88px" height="106px" viewBox="0 0 88 106" style="enable-background:new 0 0 88 106;" xml:space="preserve">
<style type="text/css">
	.st0{fill:#315C66;}
	.st1{fill:none;stroke:#FFFFFF;stroke-width:0.323;stroke-miterlimit:10;}
</style>
<g>
	<rect y="10.8" class="st0" width="44" height="95.2"/>
	<rect y="10.8" class="st1" width="44" height="95.2"/>
	<rect x="2.3" y="13.5" class="st0" width="39.5" height="89.9"/>
	<rect x="2.3" y="13.5" class="st1" width="39.5" height="89.9"/>
	<rect x="2.3" y="88.1" class="st0" width="39.5" height="1.4"/>
	<rect x="2.3" y="88.1" class="st1" width="39.5" height="1.4"/>
	<rect x="2.3" y="72.9" class="st0" width="39.5" height="1.4"/>
	<rect x="2.3" y="72.9" class="st1" width="39.5" height="1.4"/>
	<rect x="2.3" y="57.7" class="st0" width="39.5" height="1.4"/>
	<rect x="2.3" y="57.7" class="st1" width="39.5" height="1.4"/>
	<rect x="2.3" y="42.5" class="st0" width="39.5" height="1.4"/>
	<rect x="2.3" y="42.5" class="st1" width="39.5" height="1.4"/>
	<rect x="2.3" y="27.3" class="st0" width="39.5" height="1.4"/>
	<rect x="2.3" y="27.3" class="st1" width="39.5" height="1.4"/>
	<rect x="44" y="10.8" class="st0" width="44" height="95.2"/>
	<rect x="44" y="10.8" class="st1" width="44" height="95.2"/>
	<rect x="46.3" y="13.5" class="st0" width="39.5" height="89.9"/>
	<rect x="46.3" y="13.5" class="st1" width="39.5" height="89.9"/>
	<rect x="46.3" y="57.7" class="st0" width="39.5" height="1.4"/>
	<rect x="46.3" y="57.7" class="st1" width="39.5" height="1.4"/>
</g>
</svg>
