<?xml version="1.0" encoding="utf-8"?>
<!-- Generator: Adobe Illustrator 23.1.0, SVG Export Plug-In . SVG Version: 6.00 Build 0)  -->
<svg version="1.1" id="Layer_1" xmlns="http://www.w3.org/2000/svg" xmlns:xlink="http://www.w3.org/1999/xlink" x="0px" y="0px"
	 width="88px" height="106px" viewBox="0 0 88 106" style="enable-background:new 0 0 88 106;" xml:space="preserve">
<style type="text/css">
	.st0{display:none;}
	.st1{display:inline;fill:#315C66;}
	.st2{display:inline;fill:none;stroke:#FFFFFF;stroke-width:0.306;stroke-miterlimit:10;}
	.st3{display:inline;fill:#1E1E1C;}
	.st4{fill:#315C66;}
	.st5{fill:none;stroke:#FFFFFF;stroke-width:0.275;stroke-miterlimit:10;}
	.st6{fill:#1E1E1C;}
</style>
<g class="st0">
	<rect x="0" y="9.7" class="st1" width="39.1" height="96"/>
	<rect x="0" y="9.7" class="st2" width="39.1" height="96"/>
	<rect x="2" y="12.4" class="st1" width="35.1" height="90.6"/>
	<rect x="2" y="12.4" class="st2" width="35.1" height="90.6"/>
	<rect x="2" y="87.7" class="st1" width="35.1" height="1.4"/>
	<rect x="2" y="87.7" class="st2" width="35.1" height="1.4"/>
	<rect x="2" y="72.4" class="st1" width="35.1" height="1.4"/>
	<rect x="2" y="72.4" class="st2" width="35.1" height="1.4"/>
	<rect x="2" y="57" class="st1" width="35.1" height="1.4"/>
	<rect x="2" y="57" class="st2" width="35.1" height="1.4"/>
	<rect x="2" y="41.7" class="st1" width="35.1" height="1.4"/>
	<rect x="2" y="41.7" class="st2" width="35.1" height="1.4"/>
	<rect x="2" y="26.4" class="st1" width="35.1" height="1.4"/>
	<rect x="2" y="26.4" class="st2" width="35.1" height="1.4"/>
	<rect x="39.1" y="9.7" class="st1" width="39.1" height="96"/>
	<rect x="39.1" y="9.7" class="st2" width="39.1" height="96"/>
	<rect x="41.1" y="12.4" class="st1" width="35.1" height="90.6"/>
	<rect x="41.1" y="12.4" class="st2" width="35.1" height="90.6"/>
	<rect x="41.1" y="57" class="st1" width="35.1" height="1.4"/>
	<rect x="41.1" y="57" class="st2" width="35.1" height="1.4"/>
	<polygon class="st3" points="78.3,0.3 0,0.3 0,10 78.3,10 78.3,105.7 88,105.7 88,10 88,0.3 	"/>
</g>
<g>
	<rect x="8.8" y="20.2" class="st4" width="35.2" height="85.8"/>
	<rect x="8.8" y="20.2" class="st5" width="35.2" height="85.8"/>
	<rect x="10.6" y="22.6" class="st4" width="31.6" height="81"/>
	<rect x="10.6" y="22.6" class="st5" width="31.6" height="81"/>
	<rect x="10.6" y="89.9" class="st4" width="31.6" height="1.2"/>
	<rect x="10.6" y="89.9" class="st5" width="31.6" height="1.2"/>
	<rect x="10.6" y="76.2" class="st4" width="31.6" height="1.2"/>
	<rect x="10.6" y="76.2" class="st5" width="31.6" height="1.2"/>
	<rect x="10.6" y="62.5" class="st4" width="31.6" height="1.2"/>
	<rect x="10.6" y="62.5" class="st5" width="31.6" height="1.2"/>
	<rect x="10.6" y="48.8" class="st4" width="31.6" height="1.2"/>
	<rect x="10.6" y="48.8" class="st5" width="31.6" height="1.2"/>
	<rect x="10.6" y="35.1" class="st4" width="31.6" height="1.2"/>
	<rect x="10.6" y="35.1" class="st5" width="31.6" height="1.2"/>
	<rect x="44" y="20.2" class="st4" width="35.2" height="85.8"/>
	<rect x="44" y="20.2" class="st5" width="35.2" height="85.8"/>
	<rect x="45.8" y="22.6" class="st4" width="31.6" height="81"/>
	<rect x="45.8" y="22.6" class="st5" width="31.6" height="81"/>
	<rect x="45.8" y="62.5" class="st4" width="31.6" height="1.2"/>
	<rect x="45.8" y="62.5" class="st5" width="31.6" height="1.2"/>
	<polygon class="st6" points="79.2,11 8.8,11 0,11 0,106 8.8,106 8.8,19.8 79.2,19.8 79.2,106 88,106 88,19.8 88,11 	"/>
</g>
</svg>
