<?xml version="1.0" encoding="utf-8"?>
<!-- Generator: Adobe Illustrator 23.1.0, SVG Export Plug-In . SVG Version: 6.00 Build 0)  -->
<svg version="1.1" id="Layer_1" xmlns="http://www.w3.org/2000/svg" xmlns:xlink="http://www.w3.org/1999/xlink" x="0px" y="0px"
	 width="88px" height="106px" viewBox="0 0 88 106" style="enable-background:new 0 0 88 106;" xml:space="preserve">
<style type="text/css">
	.st0{fill:#315C66;}
	.st1{fill:none;stroke:#FFFFFF;stroke-width:0.306;stroke-miterlimit:10;}
	.st2{fill:#1E1E1C;}
</style>
<g>
	<rect x="0" y="9.7" class="st0" width="39.1" height="96"/>
	<rect x="0" y="9.7" class="st1" width="39.1" height="96"/>
	<rect x="2" y="12.4" class="st0" width="35.1" height="90.6"/>
	<rect x="2" y="12.4" class="st1" width="35.1" height="90.6"/>
	<rect x="2" y="87.7" class="st0" width="35.1" height="1.4"/>
	<rect x="2" y="87.7" class="st1" width="35.1" height="1.4"/>
	<rect x="2" y="72.4" class="st0" width="35.1" height="1.4"/>
	<rect x="2" y="72.4" class="st1" width="35.1" height="1.4"/>
	<rect x="2" y="57" class="st0" width="35.1" height="1.4"/>
	<rect x="2" y="57" class="st1" width="35.1" height="1.4"/>
	<rect x="2" y="41.7" class="st0" width="35.1" height="1.4"/>
	<rect x="2" y="41.7" class="st1" width="35.1" height="1.4"/>
	<rect x="2" y="26.4" class="st0" width="35.1" height="1.4"/>
	<rect x="2" y="26.4" class="st1" width="35.1" height="1.4"/>
	<rect x="39.1" y="9.7" class="st0" width="39.1" height="96"/>
	<rect x="39.1" y="9.7" class="st1" width="39.1" height="96"/>
	<rect x="41.1" y="12.4" class="st0" width="35.1" height="90.6"/>
	<rect x="41.1" y="12.4" class="st1" width="35.1" height="90.6"/>
	<rect x="41.1" y="57" class="st0" width="35.1" height="1.4"/>
	<rect x="41.1" y="57" class="st1" width="35.1" height="1.4"/>
	<polygon class="st2" points="78.3,0.3 0,0.3 0,10 78.3,10 78.3,105.7 88,105.7 88,10 88,0.3 	"/>
</g>
</svg>
