<?xml version="1.0" encoding="utf-8"?>
<!-- Generator: Adobe Illustrator 23.1.0, SVG Export Plug-In . SVG Version: 6.00 Build 0)  -->
<svg version="1.1" id="Layer_1" xmlns="http://www.w3.org/2000/svg" xmlns:xlink="http://www.w3.org/1999/xlink" x="0px" y="0px"
	 width="52px" height="126px" viewBox="0 0 52 126" style="enable-background:new 0 0 52 126;" xml:space="preserve">
<style type="text/css">
	.st0{fill:#315C66;}
	.st1{fill:none;stroke:#FFFFFF;stroke-width:9.200000e-02;stroke-miterlimit:10;}
	.st2{fill:#FFFFFF;}
</style>
<g>
	<path class="st0" d="M0.5,33.5l26.4,15.2v61L0.5,94.4V33.5z M25.3,106.8V49.7L2.2,36.3l0,57.1L25.3,106.8z"/>
	<path class="st1" d="M0.5,33.5l26.4,15.2v61L0.5,94.4V33.5z M25.3,106.8V49.7L2.2,36.3l0,57.1L25.3,106.8z"/>
	<polygon class="st0" points="0.5,94.4 0.5,14.4 23.6,1.1 29.4,81.1 	"/>
	<polygon class="st1" points="0.5,94.4 0.5,14.4 23.6,1.1 29.4,81.1 	"/>
	<polygon class="st0" points="0.5,94.4 25.3,80.2 50.4,94.7 26.9,109.7 	"/>
	<polygon class="st1" points="0.5,94.4 25.3,80.2 50.4,94.7 26.9,109.7 	"/>
	<path class="st0" d="M0.5,94.4v-61l26.4,15.2v61L0.5,94.4z M2.2,93.5l23.1,13.3V49.7L2.2,36.3L2.2,93.5z"/>
	<path class="st1" d="M0.5,94.4v-61l26.4,15.2v61L0.5,94.4z M2.2,93.5l23.1,13.3V49.7L2.2,36.3L2.2,93.5z"/>
	<polygon class="st0" points="0.5,109.7 26.9,124.9 26.9,109.7 0.5,94.4 	"/>
	<polygon class="st1" points="0.5,109.7 26.9,124.9 26.9,109.7 0.5,94.4 	"/>
	<polygon class="st0" points="0.5,109.7 0.5,102.1 26.9,117.3 26.9,124.9 	"/>
	<polygon class="st1" points="0.5,109.7 0.5,102.1 26.9,117.3 26.9,124.9 	"/>
	<polygon class="st0" points="26.9,109.7 28.6,108.7 28.6,123.9 26.9,124.9 	"/>
	<polygon class="st1" points="26.9,109.7 28.6,108.7 28.6,123.9 26.9,124.9 	"/>
	<polygon class="st0" points="28.6,28.7 50,16.3 51.7,112.5 28.6,123.9 	"/>
	<polygon class="st1" points="28.6,28.7 50,16.3 51.7,112.5 28.6,123.9 	"/>
	<polygon class="st0" points="28.6,47.8 26.9,48.7 26.9,109.7 28.6,108.7 	"/>
	<polygon class="st1" points="28.6,47.8 26.9,48.7 26.9,109.7 28.6,108.7 	"/>
	<polygon class="st0" points="0.5,33.5 26.9,48.7 26.9,29.7 0.5,14.4 	"/>
	<polygon class="st1" points="0.5,33.5 26.9,48.7 26.9,29.7 0.5,14.4 	"/>
	<polygon class="st0" points="2.2,32.5 25.3,45.9 25.3,30.6 2.2,17.3 	"/>
	<polygon class="st1" points="2.2,32.5 25.3,45.9 25.3,30.6 2.2,17.3 	"/>
	<polygon class="st0" points="2.2,13.5 0.5,14.4 26.9,29.7 26.9,48.7 28.6,47.8 28.6,28.7 	"/>
	<polygon class="st1" points="2.2,13.5 0.5,14.4 26.9,29.7 26.9,48.7 28.6,47.8 28.6,28.7 	"/>
	<polygon class="st0" points="28.6,28.7 50,16.3 23.6,1.1 2.2,13.5 	"/>
	<polygon class="st1" points="28.6,28.7 50,16.3 23.6,1.1 2.2,13.5 	"/>
	<polygon class="st0" points="26.9,48.7 0.5,33.5 0.5,14.4 26.9,29.7 	"/>
	<polygon class="st1" points="26.9,48.7 0.5,33.5 0.5,14.4 26.9,29.7 	"/>
	<path class="st2" d="M30.8,14c-0.1-0.1-0.2-0.1-0.4-0.1c-0.1,0-0.3,0-0.4,0.1c-0.1,0.1-0.2,0.2-0.3,0.3c-0.1,0.1-0.1,0.3-0.1,0.4
		c0,0.2,0,0.3,0.1,0.4c0.1,0.1,0.2,0.2,0.3,0.3c0.1,0.1,0.2,0.1,0.4,0.1c0.1,0,0.3,0,0.4-0.1c0.1-0.1,0.2-0.2,0.3-0.3
		c0.1-0.1,0.1-0.3,0.1-0.4c0-0.2,0-0.3-0.1-0.4C31.1,14.2,31,14.1,30.8,14"/>
	<polygon class="st2" points="22.9,14.8 23.8,14.8 23.3,13.6 	"/>
	<path class="st2" d="M25.9,7c-4.1,0-7.5,3.3-7.5,7.5c0,4.1,3.3,7.5,7.5,7.5c4.1,0,7.5-3.3,7.5-7.5C33.4,10.3,30,7,25.9,7 M27.4,15
		c0.1,0.2,0.2,0.3,0.4,0.4c0.2,0.1,0.4,0.1,0.6,0.1c0.3,0,0.6-0.1,0.8-0.3l0.1,0.1c-0.1,0.1-0.2,0.2-0.4,0.3
		c-0.2,0.1-0.3,0.1-0.5,0.1c-0.2,0-0.5-0.1-0.7-0.2c-0.2-0.1-0.4-0.3-0.5-0.5c-0.1-0.2-0.2-0.4-0.2-0.7c0-0.2,0.1-0.5,0.2-0.7
		c0.1-0.2,0.3-0.4,0.5-0.5c0.2-0.1,0.4-0.2,0.7-0.2c0.2,0,0.4,0,0.5,0.1c0.2,0.1,0.3,0.1,0.4,0.3l-0.1,0.1c-0.2-0.2-0.5-0.3-0.8-0.3
		c-0.2,0-0.4,0-0.6,0.1c-0.2,0.1-0.3,0.2-0.4,0.4c-0.1,0.2-0.1,0.4-0.1,0.6C27.2,14.6,27.3,14.8,27.4,15 M24.6,16.9L24.3,16h-1.8
		l-0.3,0.8h-1.7l2.1-4.9h1.6l2.1,4.9H24.6z M31.4,16.9H27v-0.2h4.4V16.9z M31.3,15.2c-0.1,0.1-0.2,0.3-0.3,0.3
		c-0.1,0.1-0.3,0.1-0.5,0.1c-0.2,0-0.3,0-0.5-0.1c-0.1-0.1-0.3-0.2-0.3-0.3c-0.1-0.1-0.1-0.3-0.1-0.5c0-0.2,0-0.3,0.1-0.5
		c0.1-0.1,0.2-0.3,0.3-0.3s0.3-0.1,0.5-0.1c0.2,0,0.3,0,0.5,0.1s0.3,0.2,0.3,0.3c0.1,0.1,0.1,0.3,0.1,0.5
		C31.4,14.9,31.4,15.1,31.3,15.2 M27,12h4.4v0.2H27V12z"/>
	<path class="st2" d="M47.4,94.1c-0.1,0.1-0.2,0.3-0.3,0.3c-0.1,0.1-0.3,0.1-0.5,0.1c-0.2,0-0.3,0-0.5-0.1c-0.1-0.1-0.3-0.2-0.3-0.3
		c-0.1-0.1-0.1-0.3-0.1-0.5c0-0.1,0-0.3,0.1-0.4c0-0.1,0.1-0.2,0.2-0.3L46,93c-0.1,0.2-0.2,0.3-0.2,0.6c0,0.2,0,0.3,0.1,0.4
		c0.1,0.1,0.2,0.2,0.3,0.3c0.1,0.1,0.3,0.1,0.4,0.1c0.2,0,0.3,0,0.4-0.1c0.1-0.1,0.2-0.2,0.3-0.3c0.1-0.1,0.1-0.3,0.1-0.4
		c0-0.2-0.1-0.4-0.2-0.6l0.1-0.1c0.1,0.1,0.2,0.2,0.2,0.3c0,0.1,0.1,0.2,0.1,0.4C47.6,93.8,47.5,94,47.4,94.1"/>
	<path class="st2" d="M47.5,92.4c-0.1,0.1-0.1,0.2-0.3,0.3c-0.1,0.1-0.2,0.1-0.4,0.1c-0.1,0-0.3,0-0.4-0.1c-0.1-0.1-0.2-0.1-0.3-0.3
		c-0.1-0.1-0.1-0.2-0.1-0.4c0-0.1,0-0.3,0.1-0.4c0.1-0.1,0.1-0.2,0.3-0.3c0.1-0.1,0.2-0.1,0.4-0.1c0.1,0,0.3,0,0.4,0.1
		c0.1,0.1,0.2,0.1,0.3,0.3c0.1,0.1,0.1,0.2,0.1,0.4C47.6,92.2,47.5,92.3,47.5,92.4 M47.4,91.8c-0.1-0.1-0.1-0.2-0.2-0.2
		c-0.1,0-0.2-0.1-0.3-0.1c-0.1,0-0.2,0-0.3,0.1c-0.1,0-0.2,0.1-0.2,0.2c0,0.1-0.1,0.2-0.1,0.3c0,0.1,0,0.2,0.1,0.3
		c0.1,0.1,0.1,0.2,0.2,0.2c0.1,0,0.2,0.1,0.3,0.1c0.1,0,0.2,0,0.3-0.1c0.1,0,0.2-0.1,0.2-0.2c0-0.1,0.1-0.2,0.1-0.3
		C47.4,91.9,47.4,91.8,47.4,91.8"/>
	<path class="st2" d="M46.3,89.8c0.1-0.1,0.2-0.2,0.4-0.2h0.8v0.1h-0.8c-0.2,0-0.3,0-0.4,0.1c-0.1,0.1-0.1,0.2-0.1,0.3
		c0,0.2,0,0.3,0.1,0.4c0.1,0.1,0.2,0.1,0.4,0.1h0.7v0.1h-1.4v-0.1h0.3c-0.1,0-0.2-0.1-0.2-0.2c-0.1-0.1-0.1-0.2-0.1-0.3
		C46.1,90.1,46.2,89.9,46.3,89.8"/>
	<path class="st2" d="M47.5,88.9c-0.1,0.1-0.1,0.2-0.3,0.3c-0.1,0.1-0.2,0.1-0.4,0.1c-0.1,0-0.3,0-0.4-0.1c-0.1-0.1-0.2-0.1-0.3-0.3
		c-0.1-0.1-0.1-0.2-0.1-0.4c0-0.1,0-0.2,0.1-0.3c0-0.1,0.1-0.2,0.2-0.2l0.1,0.1c-0.1,0.1-0.1,0.1-0.2,0.2c0,0.1-0.1,0.2-0.1,0.2
		c0,0.1,0,0.2,0.1,0.3c0,0.1,0.1,0.2,0.2,0.2c0.1,0,0.2,0.1,0.3,0.1c0.1,0,0.2,0,0.3-0.1c0.1-0.1,0.2-0.1,0.2-0.2
		c0-0.1,0.1-0.2,0.1-0.3c0-0.1,0-0.2-0.1-0.2c0-0.1-0.1-0.1-0.2-0.2l0.1-0.1c0.1,0.1,0.1,0.1,0.2,0.2c0,0.1,0.1,0.2,0.1,0.3
		C47.6,88.7,47.5,88.8,47.5,88.9"/>
	<path class="st2" d="M46.9,86.5v1.2c0.1,0,0.2,0,0.3-0.1c0.1-0.1,0.2-0.1,0.2-0.2c0-0.1,0.1-0.2,0.1-0.3c0-0.1,0-0.2,0-0.3
		c0-0.1-0.1-0.1-0.1-0.2l0.1-0.1c0.1,0.1,0.1,0.1,0.2,0.2c0,0.1,0.1,0.2,0.1,0.3c0,0.1,0,0.3-0.1,0.4c-0.1,0.1-0.1,0.2-0.3,0.3
		c-0.1,0.1-0.2,0.1-0.4,0.1c-0.1,0-0.3,0-0.4-0.1s-0.2-0.1-0.3-0.2c-0.1-0.1-0.1-0.2-0.1-0.3s0-0.2,0.1-0.3c0.1-0.1,0.1-0.2,0.3-0.2
		C46.6,86.5,46.7,86.5,46.9,86.5L46.9,86.5z M46.3,87.4c0,0.1,0.1,0.1,0.2,0.2c0.1,0,0.2,0.1,0.3,0.1v-1.1c-0.1,0-0.2,0-0.3,0.1
		c-0.1,0-0.1,0.1-0.2,0.2c0,0.1-0.1,0.2-0.1,0.3C46.3,87.2,46.3,87.3,46.3,87.4"/>
	<path class="st2" d="M46.2,85c0.1-0.1,0.1-0.2,0.3-0.2c0.1-0.1,0.2-0.1,0.4-0.1s0.3,0,0.4,0.1c0.1,0.1,0.2,0.1,0.3,0.2
		c0.1,0.1,0.1,0.2,0.1,0.4c0,0.1,0,0.2-0.1,0.3c-0.1,0.1-0.1,0.2-0.2,0.2h0.8v0.1h-1.9v-0.1h0.3c-0.1-0.1-0.2-0.1-0.3-0.2
		c-0.1-0.1-0.1-0.2-0.1-0.3C46.1,85.2,46.2,85.1,46.2,85 M47.4,85.1c-0.1-0.1-0.1-0.2-0.2-0.2c-0.1-0.1-0.2-0.1-0.3-0.1
		c-0.1,0-0.2,0-0.3,0.1c-0.1,0-0.2,0.1-0.2,0.2c0,0.1-0.1,0.2-0.1,0.3c0,0.1,0,0.2,0.1,0.3c0.1,0.1,0.1,0.2,0.2,0.2
		c0.1,0,0.2,0.1,0.3,0.1c0.1,0,0.2,0,0.3-0.1c0.1,0,0.2-0.1,0.2-0.2c0-0.1,0.1-0.2,0.1-0.3C47.4,85.2,47.4,85.2,47.4,85.1"/>
	<path class="st2" d="M47.5,83.5c0,0,0.1,0.1,0.1,0.1s0,0.1,0,0.2c0,0.1,0,0.2-0.1,0.3c-0.1,0.1-0.2,0.1-0.3,0.1h-0.9v0.3h-0.1v-0.3
		h-0.3v-0.1h0.3v-0.4h0.1v0.4h0.9c0.1,0,0.2,0,0.2-0.1c0,0,0.1-0.1,0.1-0.2C47.4,83.7,47.4,83.7,47.5,83.5L47.5,83.5z"/>
	<path class="st2" d="M47.8,106.5v1.4l0.6,0.2v1.2l-3.6-1.6v-1.2l3.6-1.6v1.2L47.8,106.5z M46.9,106.8l-0.9,0.3l0.9,0.3V106.8z"/>
	<path class="st2" d="M47.5,103.2v0.3h0.9v1.2h-3.6v-1.7c0-0.3,0.1-0.6,0.2-0.9c0.1-0.2,0.3-0.4,0.5-0.6c0.2-0.1,0.4-0.2,0.7-0.2
		c0.3,0,0.5,0.1,0.7,0.2c0.2,0.1,0.3,0.3,0.5,0.5l1.1-0.8v1.3L47.5,103.2z M45.9,102.8c-0.1,0.1-0.1,0.2-0.1,0.4v0.4h0.8v-0.4
		c0-0.2,0-0.3-0.1-0.4c-0.1-0.1-0.2-0.1-0.3-0.1S45.9,102.7,45.9,102.8"/>
	<rect x="44.8" y="99.8" class="st2" width="3.6" height="1.2"/>
	<path class="st2" d="M47.8,96.7v1.4l0.6,0.2v1.2L44.8,98v-1.2l3.6-1.6v1.2L47.8,96.7z M46.9,97.1L46,97.4l0.9,0.3V97.1z"/>
	<rect x="44.8" y="91.6" class="st2" width="0.1" height="3.1"/>
	<rect x="48.3" y="91.6" class="st2" width="0.1" height="3.1"/>
</g>
</svg>
